<?xml version="1.0" encoding="utf-8"?>
<!-- Generator: Adobe Illustrator 16.0.0, SVG Export Plug-In . SVG Version: 6.00 Build 0)  -->
<!DOCTYPE svg PUBLIC "-//W3C//DTD SVG 1.1//EN" "http://www.w3.org/Graphics/SVG/1.1/DTD/svg11.dtd">
<svg version="1.1" id="Layer_1" xmlns="http://www.w3.org/2000/svg" xmlns:xlink="http://www.w3.org/1999/xlink" x="0px" y="0px"
	 width="150px" height="150px" viewBox="0 0 150 150" enable-background="new 0 0 150 150" xml:space="preserve">
<path d="M116,31l-0.125,2.25l-14.625-6.125c0,0-5.625-2.688-9.75,1.313L84,34.406l-2,0.234l-0.125-4.633L70,30.129l-0.5,10.998
	l-20.375,0.124l-0.5,49.624L48,91H34v23c0,0,1.005,7,9.381,7H103c0,0,7.64-0.384,7.386-8.76l0.006-51.225
	c0,0,3.295-0.016,3.802-4.016H115v3l12-0.125V31H116z M49,113c0,0-0.416,3.908-5.166,3.991c0,0-5.251,0.583-5.834-4.5V94h11V113z
	 M73,33h6v24h-6V33z M101.125,117H49.688c0,0,2.313-0.625,2.313-3.875V45h18v15h12v-5l13.25,10.125c0,0,3.875,2.75,4.875-1.625
	c0,0,3.75,3,4.875-1.375c0,0,1,1.25,2,1.125V113C107,113,107.375,117,101.125,117z M111.625,57.188c0,0-0.688,0.5-2-1.063
	l-2.688-3.563c0,0-1.063-0.688-1.813,0.125c0,0-1.313,0.438,0.063,2.5L107.563,58c0,0,0.625,1.188-0.5,1.75c0,0-0.813,0.5-2.063-1
	l-3.5-4.375c0,0-1-1.063-2-0.25c0,0-1.063,0.688,0,1.875l2.25,3.188c0,0,0.788,0.958-0.201,1.642
	c-0.053,0.037-0.11,0.073-0.174,0.108c0,0-0.688,0.5-1.688-0.688l-3.313-4.375c0,0-0.563-0.75-1.813,0.063c0,0-1,0.688-0.125,1.688
	l2.625,3.417c0,0,0.455,0.958-0.429,1.146c0,0-0.509,0.938-2.384-1l-10.563-8.5c0,0-0.688-0.875-2.688-0.688V41h1
	c0,0,2.583,6.264,10.75,2.597c0.31-0.139,0.588-0.263,0.852-0.381l4.315-3.619l14,15.75C111.917,55.347,112.875,56.5,111.625,57.188
	z M115,51l-2.75,0.347l-11.166-13.917c0,0-2.667-3.75-6.167,0l-3.5,2.93c0,0-4.002,2.807-7.376-1.645l9.896-7.935
	c0,0,2.364-3.134,6.781-0.05c0,0,8.281,4.7,14.281,4.95V51z M125,57h-7V33h7V57z"/>
<rect x="70" y="72" width="34" height="3"/>
<rect x="70" y="88" width="34" height="3"/>
<rect x="70" y="104" width="34" height="3"/>
<polygon points="54,74.375 56.75,72 59,74.375 65.5,67.75 68.125,70.125 58.625,79.25 "/>
<polygon points="54,91.375 56.75,89 59,91.375 65.5,84.75 68.125,87.125 58.625,96.25 "/>
<polygon points="54,107.375 56.75,105 59,107.375 65.5,100.75 68.125,103.125 58.625,112.25 "/>
</svg>
